<svg width="162" height="242" viewBox="0 0 162 242" fill="none" xmlns="http://www.w3.org/2000/svg">
<mask id="mask0_1618_463" style="mask-type:alpha" maskUnits="userSpaceOnUse" x="0" y="0" width="162" height="242">
<path fill-rule="evenodd" clip-rule="evenodd" d="M48.5982 72.3313C48.5982 69.764 50.6484 67.6829 53.1776 67.6829H108.131C110.66 67.6829 112.71 69.764 112.71 72.3313V81.816C112.71 84.3833 110.66 86.4645 108.131 86.4645H100.498C98.8122 86.4645 97.4454 87.852 97.4454 89.5635V113.728C97.4454 114.506 97.7402 115.249 98.2295 115.848C98.7513 116.486 99.2471 117.161 99.7139 117.873L108.049 130.581C105.41 129.614 102.84 129.102 100.239 129.01C93.6248 128.775 87.0427 131.268 78.9475 135.246L78.9377 135.251C70.8425 139.292 64.8248 141.035 59.0457 140.592C55.706 140.336 52.3727 139.344 48.6988 137.535L61.5945 117.873C62.0613 117.161 62.5571 116.486 63.0789 115.848C63.5681 115.249 63.8629 114.506 63.8629 113.728V89.5635C63.8629 87.852 62.4961 86.4645 60.81 86.4645H53.1776C50.6484 86.4645 48.5982 84.3833 48.5982 81.816V72.3313ZM80.245 139.813C81.6798 139.108 83.0485 138.46 84.3617 137.872C83.13 138.431 81.8655 139.033 80.5617 139.674L80.5518 139.679C79.3149 140.296 78.1264 140.86 76.98 141.37C78.0406 140.89 79.1277 140.371 80.245 139.813ZM44.3838 144.114L3.87591 205.878C-6.25496 221.324 4.65442 242 22.9356 242H138.373C156.654 242 167.563 221.324 157.432 205.878L117.18 144.503C111.251 140.331 106.403 138.518 101.601 138.347C95.8226 138.142 89.874 140.302 81.8591 144.241C73.5298 148.397 66.8842 150.429 60.2824 149.922C55.0922 149.525 50.065 147.569 44.3838 144.114ZM58.6395 221.5C60.5856 223.408 63.2758 224.362 66.7101 224.362H70.6023V217.607H67.1108C66.0042 217.607 65.1265 217.226 64.4778 216.463C63.8673 215.738 63.562 214.726 63.562 213.429V204.214C63.562 202.725 63.2186 201.333 62.5317 200.035C61.883 198.738 60.929 197.631 59.6698 196.715C60.929 195.8 61.883 194.693 62.5317 193.396C63.2186 192.098 63.562 190.705 63.562 189.217V180.002C63.562 178.704 63.8673 177.693 64.4778 176.968C65.1265 176.205 66.0042 175.823 67.1108 175.823H70.6023V169.069H66.7101C63.2758 169.069 60.5856 170.023 58.6395 171.931C56.7315 173.801 55.7776 176.415 55.7776 179.773V189.217C55.7776 190.629 55.3578 191.736 54.5183 192.537C53.6788 193.338 52.515 193.739 51.0268 193.739L51.0268 199.692C52.515 199.692 53.6788 200.092 54.5183 200.894C55.3578 201.695 55.7776 202.802 55.7776 204.214V213.658C55.7776 217.016 56.7315 219.63 58.6395 221.5ZM92.6691 217.607H89.1775V224.362H93.0698C96.5041 224.362 99.1752 223.408 101.083 221.5C103.029 219.63 104.002 217.016 104.002 213.658V204.214C104.002 202.802 104.422 201.695 105.262 200.894C106.101 200.092 107.265 199.692 108.753 199.692V193.739C107.265 193.739 106.101 193.338 105.262 192.537C104.422 191.736 104.002 190.629 104.002 189.217V179.773C104.002 176.415 103.029 173.801 101.083 171.931C99.1752 170.023 96.5041 169.069 93.0698 169.069H89.1775V175.823H92.6691C93.7757 175.823 94.6343 176.205 95.2448 176.968C95.8935 177.693 96.2179 178.704 96.2179 180.002V189.217C96.2179 190.705 96.5422 192.098 97.1909 193.396C97.8778 194.693 98.8508 195.8 100.11 196.715C98.8508 197.631 97.8778 198.738 97.1909 200.035C96.5422 201.333 96.2179 202.725 96.2179 204.214V213.429C96.2179 214.726 95.8935 215.738 95.2448 216.463C94.6343 217.226 93.7757 217.607 92.6691 217.607Z" fill="white"/>
<path fill-rule="evenodd" clip-rule="evenodd" d="M66.4486 22.435C63.5759 22.5142 61.3113 24.9072 61.3905 27.78C61.4697 30.6527 63.8627 32.9173 66.7355 32.8381C69.6082 32.7589 71.8728 30.3659 71.7936 27.4932C71.7144 24.6204 69.3214 22.3558 66.4486 22.435ZM53.5882 27.9951C53.3902 20.8133 59.0517 14.8308 66.2335 14.6328C73.4153 14.4348 79.3978 20.0962 79.5958 27.278C79.7939 34.4598 74.1324 40.4424 66.9506 40.6404C59.7688 40.8384 53.7862 35.1769 53.5882 27.9951Z" fill="white"/>
<path fill-rule="evenodd" clip-rule="evenodd" d="M101.571 48.0582C101.709 53.0855 97.7463 57.2732 92.7191 57.4118C87.6918 57.5504 83.5041 53.5874 83.3655 48.5601C83.2269 43.5329 87.1899 39.3451 92.2172 39.2065C97.2444 39.0679 101.432 43.0309 101.571 48.0582ZM92.5757 52.2103C94.7302 52.1509 96.4287 50.3561 96.3693 48.2016C96.3099 46.0471 94.5151 44.3486 92.3606 44.408C90.206 44.4674 88.5076 46.2622 88.567 48.4167C88.6264 50.5713 90.4211 52.2697 92.5757 52.2103Z" fill="white"/>
<path fill-rule="evenodd" clip-rule="evenodd" d="M93.7317 5.20151C93.8109 8.07424 91.5464 10.4672 88.6736 10.5464C85.8009 10.6256 83.4079 8.36105 83.3287 5.48832C83.2495 2.6156 85.5141 0.2226 88.3868 0.143399C91.2595 0.0641989 93.6525 2.32879 93.7317 5.20151ZM88.6019 7.94568C90.0383 7.90608 91.1706 6.70958 91.131 5.27322C91.0914 3.83686 89.8949 2.70456 88.4585 2.74416C87.0222 2.78376 85.8899 3.98026 85.9295 5.41662C85.9691 6.85298 87.1656 7.98528 88.6019 7.94568Z" fill="white"/>
</mask>
<g mask="url(#mask0_1618_463)">
<path d="M-5.20349 244.635L-5.2035 -18.1413L169.114 -18.1413L169.114 244.635L-5.20349 244.635Z" fill="url(#paint0_linear_1618_463)"/>
</g>
<defs>
<linearGradient id="paint0_linear_1618_463" x1="91.4949" y1="289.769" x2="91.4949" y2="-64.2776" gradientUnits="userSpaceOnUse">
<stop offset="0.0242724" stop-color="#F8CA87"/>
<stop offset="1" stop-color="#D14081"/>
</linearGradient>
</defs>
</svg>
