<svg width="133" height="146" viewBox="0 0 133 146" fill="none" xmlns="http://www.w3.org/2000/svg">
<path d="M70.4737 0H8C3.58172 0 0 3.58172 0 8V122.105C0 126.524 3.58172 130.105 8 130.105H95C99.4183 130.105 103 126.524 103 122.105V32.5263L74.9428 30.8759C73.4246 30.7866 72.2134 29.5754 72.1241 28.0572L70.4737 0Z" fill="#5B2A86"/>
<path d="M70.4736 26.5263V0L103 32.5263H76.4736C73.1599 32.5263 70.4736 29.84 70.4736 26.5263Z" fill="#D14081"/>
<path d="M81.096 103.092C64.4579 108.358 34.5975 105.287 21.747 103.092C20.7324 102.919 17.1817 102.417 15.6599 103.599C11.0946 107.143 8.55829 104.105 11.0946 101.067C13.1236 98.6362 11.6018 93.64 10.5873 91.4458C8.05105 85.3693 8.05104 74.2292 8.05104 68.1528C8.05104 62.5598 10.0801 52.4554 8.5583 49.4171C6.93508 44.556 9.23464 44.691 10.5873 45.3662C13.6309 45.8726 16.1671 48.9108 23.2687 46.3789C41.53 42.328 69.0909 44.3535 80.5887 45.8726C82.7868 46.3789 87.5888 47.1891 89.2121 46.3789C94.0817 43.1382 94.2846 47.0541 93.7774 49.4171C92.7628 54.4808 92.5599 53.9745 93.7774 59.0381C99.8644 84.3566 91.2411 90.433 93.7774 98.5349C95.8064 105.016 92.9319 104.611 91.2411 103.599C90.0575 102.586 86.3714 101.067 81.096 103.092Z" fill="#5B2A86"/>
<path d="M27.3503 63.9497C29.1883 63.9497 30.8884 64.185 32.4507 64.6555C34.0436 65.0966 35.4068 65.7877 36.5402 66.7288C37.6736 67.6699 38.562 68.8609 39.2053 70.302C39.8486 71.7136 40.1703 73.4046 40.1703 75.375C40.1703 77.2571 39.8946 78.904 39.3432 80.3156C38.7918 81.7272 38.0106 82.9183 36.9997 83.8888C35.9888 84.8299 34.7635 85.5357 33.3237 86.0062C31.9146 86.4767 30.337 86.712 28.5909 86.712C27.2737 86.712 26.0483 86.5209 24.9149 86.1385V93.4613C24.6086 93.5495 24.1185 93.6378 23.4445 93.726C22.7706 93.8436 22.0813 93.9024 21.3768 93.9024C20.7029 93.9024 20.0902 93.8583 19.5388 93.7701C19.018 93.6819 18.5738 93.5054 18.2062 93.2407C17.8386 92.9761 17.5629 92.6085 17.3791 92.1379C17.1953 91.6968 17.1034 91.1086 17.1034 90.3734V69.1991C17.1034 68.4051 17.2719 67.7581 17.6089 67.2582C17.9765 66.7582 18.4666 66.3024 19.0793 65.8907C20.0289 65.3025 21.2083 64.8319 22.6174 64.479C24.0266 64.1261 25.6042 63.9497 27.3503 63.9497ZM27.4422 80.8009C30.5974 80.8009 32.175 78.9922 32.175 75.375C32.175 73.4928 31.7768 72.0959 30.9803 71.1842C30.2145 70.2726 29.0964 69.8167 27.626 69.8167C27.0439 69.8167 26.5232 69.8902 26.0637 70.0373C25.6042 70.1549 25.2059 70.302 24.869 70.4784V80.1833C25.2366 80.3597 25.6348 80.5068 26.0637 80.6244C26.4925 80.742 26.952 80.8009 27.4422 80.8009Z" fill="white"/>
<path d="M42.5578 75.3308C42.5578 73.3899 42.8642 71.7136 43.4768 70.302C44.0895 68.8609 44.9319 67.6699 46.0041 66.7288C47.1069 65.7877 48.3782 65.0966 49.8179 64.6555C51.2883 64.185 52.8659 63.9497 54.5508 63.9497C55.1634 63.9497 55.7608 64.0085 56.3428 64.1261C56.9248 64.2144 57.3996 64.332 57.7672 64.479V57.3327C58.0736 57.2445 58.5637 57.1563 59.2376 57.068C59.9116 56.9504 60.6008 56.8916 61.3054 56.8916C61.9793 56.8916 62.5767 56.9357 63.0974 57.0239C63.6488 57.1122 64.1083 57.2886 64.4759 57.5533C64.8435 57.818 65.1192 58.1856 65.303 58.6561C65.4868 59.0972 65.5787 59.6854 65.5787 60.4206V81.3302C65.5787 82.7124 64.9048 83.8153 63.5569 84.6387C62.6686 85.1975 61.5198 85.6827 60.1107 86.0944C58.7016 86.5356 57.078 86.7561 55.24 86.7561C53.2488 86.7561 51.4568 86.4914 49.8639 85.9621C48.3016 85.4327 46.969 84.6681 45.8662 83.6682C44.7941 82.6683 43.967 81.4773 43.385 80.0951C42.8336 78.6834 42.5578 77.0954 42.5578 75.3308ZM55.6076 69.8167C53.9534 69.8167 52.6821 70.2726 51.7938 71.1842C50.9054 72.0959 50.4612 73.4781 50.4612 75.3308C50.4612 77.1542 50.8748 78.5364 51.7019 79.4775C52.529 80.3891 53.7237 80.845 55.286 80.845C55.8374 80.845 56.3275 80.7715 56.7563 80.6244C57.2158 80.448 57.5681 80.2568 57.8132 80.0509V70.3461C57.2005 69.9932 56.4653 69.8167 55.6076 69.8167Z" fill="white"/>
<path d="M70.0789 64.6114C70.0789 63.1115 70.3393 61.8323 70.8601 60.7735C71.4115 59.6854 72.1467 58.8032 73.0657 58.1268C73.9847 57.421 75.0568 56.9063 76.2821 56.5828C77.5381 56.2593 78.8706 56.0976 80.2798 56.0976C82.5466 56.0976 84.2161 56.3916 85.2883 56.9798C86.3605 57.5386 86.8966 58.5091 86.8966 59.8913C86.8966 60.4795 86.7587 61.0088 86.483 61.4793C86.2379 61.9499 85.9622 62.3028 85.6559 62.5381C85.0739 62.391 84.4612 62.2734 83.8179 62.1852C83.2053 62.0675 82.4854 62.0087 81.6583 62.0087C80.341 62.0087 79.3148 62.2293 78.5796 62.6704C77.8444 63.0821 77.4768 63.8173 77.4768 64.8761V66.2877H85.0126C85.1964 66.6112 85.3649 67.0229 85.5181 67.5228C85.7019 67.9934 85.7938 68.5227 85.7938 69.1109C85.7938 70.1402 85.5487 70.8901 85.0586 71.3607C84.5991 71.8018 83.9711 72.0224 83.1746 72.0224H77.8904V86.0062C77.5841 86.0944 77.0939 86.1827 76.42 86.2709C75.7767 86.3591 75.1028 86.4032 74.3982 86.4032C73.7243 86.4032 73.1116 86.3591 72.5602 86.2709C72.0394 86.1827 71.5953 86.0062 71.2277 85.7415C70.8601 85.4768 70.569 85.1239 70.3546 84.6828C70.1708 84.2123 70.0789 83.6094 70.0789 82.8742V64.6114Z" fill="white"/>
<rect x="39" y="106" width="94" height="40" rx="20" fill="#185ABD"/>
<path d="M67.864 124.704C67.864 126.368 67.536 127.776 66.88 128.928C66.224 130.064 65.336 130.928 64.216 131.52C63.096 132.112 61.816 132.408 60.376 132.408C58.952 132.408 57.68 132.112 56.56 131.52C55.44 130.928 54.552 130.064 53.896 128.928C53.256 127.776 52.936 126.368 52.936 124.704C52.936 123.04 53.264 121.64 53.92 120.504C54.592 119.352 55.488 118.488 56.608 117.912C57.728 117.32 58.984 117.024 60.376 117.024C61.784 117.024 63.048 117.32 64.168 117.912C65.304 118.488 66.2 119.352 66.856 120.504C67.528 121.64 67.864 123.04 67.864 124.704ZM64.048 124.704C64.048 123.184 63.712 122.024 63.04 121.224C62.384 120.424 61.496 120.024 60.376 120.024C59.304 120.024 58.432 120.424 57.76 121.224C57.088 122.008 56.752 123.168 56.752 124.704C56.752 126.256 57.08 127.424 57.736 128.208C58.408 128.992 59.296 129.384 60.4 129.384C61.504 129.384 62.384 128.992 63.04 128.208C63.712 127.424 64.048 126.256 64.048 124.704ZM73.1247 124.104V121.32H77.7807C77.8607 121.448 77.9407 121.64 78.0207 121.896C78.1007 122.136 78.1407 122.4 78.1407 122.688C78.1407 123.184 78.0287 123.544 77.8047 123.768C77.5807 123.992 77.2767 124.104 76.8927 124.104H73.1247ZM73.6527 120.384V123.672H70.2207V120.24C70.2207 119.184 70.4447 118.328 70.8927 117.672C71.3407 117.016 71.9487 116.536 72.7167 116.232C73.5007 115.912 74.3727 115.752 75.3327 115.752C76.4527 115.752 77.2847 115.904 77.8287 116.208C78.3887 116.496 78.6687 116.976 78.6687 117.648C78.6687 117.936 78.6047 118.2 78.4767 118.44C78.3647 118.664 78.2287 118.84 78.0687 118.968C77.7807 118.872 77.4607 118.792 77.1087 118.728C76.7567 118.648 76.3647 118.608 75.9327 118.608C75.1807 118.608 74.6127 118.744 74.2287 119.016C73.8447 119.288 73.6527 119.744 73.6527 120.384ZM70.2207 122.952H73.8447V131.976C73.6847 132.024 73.4527 132.064 73.1487 132.096C72.8607 132.144 72.5487 132.168 72.2127 132.168C71.5247 132.168 71.0207 132.048 70.7007 131.808C70.3807 131.568 70.2207 131.128 70.2207 130.488V122.952ZM82.5807 124.104V121.32H87.2367C87.3167 121.448 87.3967 121.64 87.4767 121.896C87.5567 122.136 87.5967 122.4 87.5967 122.688C87.5967 123.184 87.4847 123.544 87.2607 123.768C87.0367 123.992 86.7327 124.104 86.3487 124.104H82.5807ZM83.1087 120.384V123.672H79.6767V120.24C79.6767 119.184 79.9007 118.328 80.3487 117.672C80.7967 117.016 81.4047 116.536 82.1727 116.232C82.9567 115.912 83.8287 115.752 84.7887 115.752C85.9087 115.752 86.7407 115.904 87.2847 116.208C87.8447 116.496 88.1247 116.976 88.1247 117.648C88.1247 117.936 88.0607 118.2 87.9327 118.44C87.8207 118.664 87.6847 118.84 87.5247 118.968C87.2367 118.872 86.9167 118.792 86.5647 118.728C86.2127 118.648 85.8207 118.608 85.3887 118.608C84.6367 118.608 84.0687 118.744 83.6847 119.016C83.3007 119.288 83.1087 119.744 83.1087 120.384ZM79.6767 122.952H83.3007V131.976C83.1407 132.024 82.9087 132.064 82.6047 132.096C82.3167 132.144 82.0047 132.168 81.6687 132.168C80.9807 132.168 80.4767 132.048 80.1567 131.808C79.8367 131.568 79.6767 131.128 79.6767 130.488V122.952ZM89.6127 117.168C89.6127 116.608 89.8047 116.144 90.1887 115.776C90.5727 115.392 91.0527 115.2 91.6287 115.2C92.2367 115.2 92.7247 115.392 93.0927 115.776C93.4607 116.144 93.6447 116.608 93.6447 117.168C93.6447 117.696 93.4607 118.152 93.0927 118.536C92.7247 118.92 92.2367 119.112 91.6287 119.112C91.0527 119.112 90.5727 118.92 90.1887 118.536C89.8047 118.152 89.6127 117.696 89.6127 117.168ZM89.8287 125.664H93.4527V131.976C93.2927 132.024 93.0687 132.064 92.7807 132.096C92.4927 132.144 92.1727 132.168 91.8207 132.168C91.1327 132.168 90.6287 132.048 90.3087 131.808C89.9887 131.568 89.8287 131.128 89.8287 130.488V125.664ZM93.4527 127.536H89.8287V120.6C89.9887 120.552 90.2127 120.512 90.5007 120.48C90.8047 120.432 91.1247 120.408 91.4607 120.408C92.1647 120.408 92.6687 120.528 92.9727 120.768C93.2927 120.992 93.4527 121.432 93.4527 122.088V127.536ZM102.546 122.976C101.682 122.976 100.946 123.256 100.338 123.816C99.7301 124.376 99.4261 125.192 99.4261 126.264C99.4261 127.336 99.7141 128.144 100.29 128.688C100.882 129.216 101.626 129.48 102.522 129.48C103.05 129.48 103.506 129.416 103.89 129.288C104.29 129.144 104.626 129 104.898 128.856C105.17 129.048 105.378 129.264 105.522 129.504C105.666 129.728 105.738 130.008 105.738 130.344C105.738 130.952 105.418 131.44 104.778 131.808C104.138 132.176 103.258 132.36 102.138 132.36C100.858 132.36 99.7381 132.136 98.7781 131.688C97.8181 131.224 97.0741 130.536 96.5461 129.624C96.0181 128.712 95.7541 127.592 95.7541 126.264C95.7541 124.888 96.0421 123.744 96.6181 122.832C97.1941 121.92 97.9541 121.24 98.8981 120.792C99.8581 120.344 100.898 120.12 102.018 120.12C103.122 120.12 103.994 120.32 104.634 120.72C105.274 121.104 105.594 121.6 105.594 122.208C105.594 122.496 105.522 122.76 105.378 123C105.25 123.24 105.09 123.44 104.898 123.6C104.61 123.456 104.266 123.32 103.866 123.192C103.482 123.048 103.042 122.976 102.546 122.976ZM109.353 127.92L109.209 125.496L115.113 124.56C115.081 124.128 114.889 123.728 114.537 123.36C114.201 122.976 113.689 122.784 113.001 122.784C112.281 122.784 111.681 123.024 111.201 123.504C110.737 123.984 110.497 124.664 110.481 125.544L110.601 127.248C110.745 128.096 111.113 128.704 111.705 129.072C112.313 129.44 113.033 129.624 113.865 129.624C114.537 129.624 115.169 129.536 115.761 129.36C116.353 129.168 116.825 128.968 117.177 128.76C117.417 128.904 117.617 129.104 117.777 129.36C117.937 129.616 118.017 129.896 118.017 130.2C118.017 130.68 117.825 131.08 117.441 131.4C117.073 131.72 116.553 131.96 115.881 132.12C115.225 132.28 114.465 132.36 113.601 132.36C112.369 132.36 111.257 132.128 110.265 131.664C109.289 131.2 108.521 130.504 107.961 129.576C107.401 128.648 107.121 127.48 107.121 126.072C107.121 125.048 107.281 124.16 107.601 123.408C107.937 122.656 108.377 122.04 108.921 121.56C109.481 121.064 110.105 120.704 110.793 120.48C111.497 120.24 112.233 120.12 113.001 120.12C114.089 120.12 115.049 120.336 115.881 120.768C116.713 121.2 117.361 121.8 117.825 122.568C118.289 123.32 118.521 124.184 118.521 125.16C118.521 125.672 118.385 126.056 118.113 126.312C117.841 126.568 117.457 126.728 116.961 126.792L109.353 127.92Z" fill="white"/>
</svg>
