<svg
  width="371"
  height="120"
  viewBox="0 0 371 120"
  fill="none"
  xmlns="http://www.w3.org/2000/svg"
>
  <path
    d="M141.208 114.372C109.066 124.565 51.3815 118.619 26.5566 114.372C24.5968 114.037 17.7373 113.065 14.7975 115.352C5.97816 122.213 1.07852 116.332 5.97816 110.452C9.89787 105.747 6.95809 96.0775 4.99824 91.8305C0.0986108 80.0697 0.0985986 58.5082 0.0985967 46.7473C0.0985949 35.9221 4.0183 16.3652 1.07853 10.4848C-2.05724 1.07612 2.3851 1.33749 4.99824 2.64425C10.8778 3.62433 15.7774 9.50473 29.4964 4.60438C64.7738 -3.23618 118.016 0.684109 140.228 3.62433C144.475 4.60439 153.751 6.1725 156.887 4.60438C166.294 -1.66806 166.686 5.91114 165.706 10.4848C163.746 20.2855 163.354 19.3054 165.706 29.1061C177.465 78.1095 160.807 89.8704 165.706 105.551C169.626 118.096 164.073 117.312 160.807 115.352C158.52 113.392 151.399 110.452 141.208 114.372Z"
    fill="#5B2A86"
  />
  <path
    d="M122.646 39.5125C122.646 36.3802 123.168 33.7085 124.212 31.4975C125.318 29.225 126.792 27.3825 128.634 25.9699C130.477 24.4958 132.626 23.421 135.083 22.7454C137.601 22.0699 140.273 21.7321 143.098 21.7321C147.643 21.7321 150.99 22.3462 153.14 23.5746C155.29 24.7415 156.364 26.7683 156.364 29.6549C156.364 30.8833 156.088 31.9888 155.535 32.9715C155.044 33.9542 154.491 34.6912 153.877 35.1825C152.71 34.8754 151.482 34.6298 150.192 34.4455C148.964 34.1998 147.52 34.077 145.862 34.077C143.221 34.077 141.164 34.5376 139.69 35.4589C138.215 36.3187 137.478 37.8542 137.478 40.0652V43.0133H152.587C152.956 43.6889 153.294 44.5487 153.601 45.5928C153.969 46.5755 154.153 47.681 154.153 48.9094C154.153 51.059 153.662 52.6251 152.679 53.6078C151.758 54.5291 150.499 54.9897 148.902 54.9897H138.308V84.1938C137.693 84.378 136.711 84.5623 135.36 84.7466C134.07 84.9308 132.719 85.0229 131.306 85.0229C129.955 85.0229 128.726 84.9308 127.621 84.7466C126.577 84.5623 125.686 84.1938 124.949 83.641C124.212 83.0883 123.629 82.3513 123.199 81.43C122.83 80.4473 122.646 79.1883 122.646 77.6528V39.5125Z"
    fill="white"
  />
  <path
    d="M66.5471 61.8992C66.5471 57.8456 67.1613 54.3448 68.3896 51.3968C69.618 48.3873 71.307 45.8999 73.4566 43.9345C75.6676 41.9692 78.2165 40.5258 81.1031 39.6046C84.0511 38.6219 87.2142 38.1306 90.5921 38.1306C91.8205 38.1306 93.0181 38.2534 94.1851 38.4991C95.352 38.6833 96.304 38.929 97.041 39.2361V24.3116C97.6551 24.1273 98.6378 23.9431 99.989 23.7588C101.34 23.5132 102.722 23.3903 104.135 23.3903C105.486 23.3903 106.684 23.4824 107.728 23.6667C108.833 23.851 109.754 24.2195 110.491 24.7722C111.228 25.325 111.781 26.0927 112.15 27.0754C112.518 27.9966 112.702 29.225 112.702 30.7604V74.4284C112.702 77.315 111.351 79.6182 108.649 81.3379C106.868 82.5048 104.565 83.5182 101.739 84.378C98.9142 85.2993 95.6591 85.7599 91.974 85.7599C87.9819 85.7599 84.3889 85.2072 81.1952 84.1017C78.0629 82.9961 75.3913 81.3993 73.1802 79.3111C71.0306 77.2229 69.3723 74.7355 68.2054 71.8488C67.0999 68.9008 66.5471 65.5842 66.5471 61.8992ZM92.711 50.3834C89.3945 50.3834 86.8456 51.3353 85.0645 53.2393C83.2834 55.1432 82.3929 58.0299 82.3929 61.8992C82.3929 65.7071 83.222 68.5937 84.8803 70.5591C86.5386 72.463 88.9338 73.415 92.0661 73.415C93.1717 73.415 94.1543 73.2614 95.0142 72.9544C95.9355 72.5859 96.6418 72.1866 97.1331 71.7567V51.4889C95.9048 50.7519 94.4307 50.3834 92.711 50.3834Z"
    fill="white"
  />
  <path
    d="M35.1354 38.1306C38.8204 38.1306 42.2291 38.6219 45.3614 39.6046C48.5551 40.5259 51.2882 41.9692 53.5607 43.9345C55.8331 45.8999 57.6143 48.3873 58.904 51.3968C60.1938 54.3448 60.8387 57.8763 60.8387 61.9913C60.8387 65.9221 60.2859 69.3614 59.1804 72.3095C58.0749 75.2575 56.5087 77.7449 54.4819 79.7717C52.4552 81.7371 49.9985 83.2111 47.1118 84.1938C44.2866 85.1765 41.1236 85.6678 37.6228 85.6678C34.9818 85.6678 32.5251 85.2686 30.2527 84.4702V99.7632C29.6385 99.9474 28.6558 100.132 27.3046 100.316C25.9535 100.562 24.5716 100.684 23.1589 100.684C21.8078 100.684 20.5794 100.592 19.4739 100.408C18.4298 100.224 17.5392 99.8553 16.8022 99.3025C16.0652 98.7498 15.5125 97.9821 15.1439 96.9994C14.7754 96.0781 14.5912 94.8498 14.5912 93.3143V49.0936C14.5912 47.4353 14.929 46.0842 15.6046 45.0401C16.3416 43.996 17.3243 43.044 18.5526 42.1841C20.4566 40.9558 22.8212 39.9731 25.6464 39.2361C28.4716 38.4991 31.6346 38.1306 35.1354 38.1306ZM35.3196 73.3229C41.6457 73.3229 44.8087 69.5457 44.8087 61.9913C44.8087 58.0606 44.0102 55.1433 42.4134 53.2393C40.8779 51.3354 38.6362 50.3834 35.6881 50.3834C34.5212 50.3834 33.4771 50.5369 32.5558 50.844C31.6346 51.0897 30.8362 51.3968 30.1606 51.7653V72.0331C30.8976 72.4016 31.696 72.7087 32.5558 72.9544C33.4157 73.2 34.337 73.3229 35.3196 73.3229Z"
    fill="white"
  />
  <path
    d="M357.082 70.5336C357.082 72.1644 357.583 73.3248 358.587 74.0148C359.653 74.7048 361.127 75.0497 363.009 75.0497C363.95 75.0497 364.922 74.987 365.926 74.8616C366.929 74.6734 367.807 74.4539 368.56 74.203C369.125 74.8929 369.595 75.677 369.971 76.5551C370.411 77.3705 370.63 78.3741 370.63 79.5659C370.63 81.9494 369.721 83.8939 367.902 85.3993C366.145 86.9046 363.009 87.6573 358.493 87.6573C352.973 87.6573 348.708 86.4029 345.697 83.8939C342.749 81.3849 341.275 77.3078 341.275 71.6626V31.3936C341.965 31.2054 342.937 31.0172 344.192 30.829C345.509 30.5781 346.889 30.4527 348.332 30.4527C351.091 30.4527 353.224 30.9545 354.729 31.9581C356.298 32.8989 357.082 34.9375 357.082 38.0737V44.0952H369.407C369.783 44.7852 370.128 45.6634 370.442 46.7297C370.818 47.7333 371.006 48.8623 371.006 50.1168C371.006 52.3121 370.505 53.9116 369.501 54.9152C368.56 55.8561 367.274 56.3265 365.643 56.3265H357.082V70.5336Z"
    fill="#5B2A86"
  />
  <path
    d="M333.354 72.6035C333.354 77.3705 331.566 81.1026 327.991 83.7998C324.416 86.4969 319.147 87.8455 312.185 87.8455C309.55 87.8455 307.104 87.6573 304.846 87.281C302.588 86.9046 300.643 86.3401 299.012 85.5874C297.444 84.772 296.19 83.7684 295.249 82.5767C294.371 81.3849 293.932 79.9736 293.932 78.3428C293.932 76.8374 294.245 75.5829 294.873 74.5793C295.5 73.513 296.253 72.6348 297.131 71.9449C298.95 72.9485 301.02 73.858 303.34 74.6734C305.724 75.4261 308.452 75.8024 311.526 75.8024C313.47 75.8024 314.944 75.5202 315.948 74.9556C317.014 74.3911 317.548 73.6384 317.548 72.6976C317.548 71.8194 317.171 71.1294 316.418 70.6277C315.666 70.1259 314.411 69.7182 312.655 69.4045L309.832 68.84C304.375 67.7737 300.298 66.1115 297.601 63.8534C294.967 61.5326 293.65 58.2396 293.65 53.9743C293.65 51.6535 294.151 49.5523 295.155 47.6705C296.159 45.7888 297.57 44.2207 299.389 42.9662C301.208 41.7117 303.372 40.7395 305.881 40.0495C308.452 39.3595 311.275 39.0146 314.349 39.0146C316.669 39.0146 318.833 39.2027 320.841 39.5791C322.91 39.8927 324.698 40.3945 326.203 41.0845C327.709 41.7744 328.901 42.6839 329.779 43.813C330.657 44.8793 331.096 46.1651 331.096 47.6705C331.096 49.1132 330.814 50.3677 330.249 51.434C329.747 52.4376 329.089 53.2844 328.273 53.9743C327.772 53.6607 327.019 53.3471 326.015 53.0335C325.012 52.6571 323.914 52.3435 322.722 52.0926C321.531 51.779 320.307 51.5281 319.053 51.3399C317.861 51.1517 316.763 51.0576 315.76 51.0576C313.69 51.0576 312.091 51.3085 310.961 51.8103C309.832 52.2494 309.268 52.9707 309.268 53.9743C309.268 54.6643 309.582 55.2288 310.209 55.6679C310.836 56.107 312.028 56.5147 313.784 56.891L316.701 57.5496C322.722 58.9296 326.988 60.8426 329.497 63.2889C332.068 65.6724 333.354 68.7773 333.354 72.6035Z"
    fill="#5B2A86"
  />
  <path
    d="M267.321 87.7514C263.621 87.7514 260.171 87.2496 256.972 86.246C253.836 85.1797 251.076 83.6116 248.692 81.5417C246.372 79.4718 244.521 76.8687 243.141 73.7325C241.824 70.5963 241.165 66.9269 241.165 62.7244C241.165 58.5846 241.824 55.0406 243.141 52.0926C244.521 49.0818 246.309 46.6356 248.504 44.7538C250.7 42.8094 253.208 41.3981 256.031 40.5199C258.854 39.5791 261.739 39.1086 264.687 39.1086C268.011 39.1086 271.022 39.6104 273.719 40.614C276.479 41.6176 278.831 42.9976 280.776 44.7538C282.783 46.5101 284.32 48.6114 285.386 51.0576C286.515 53.5039 287.08 56.1697 287.08 59.055C287.08 61.1876 286.484 62.8185 285.292 63.9475C284.1 65.0765 282.438 65.7979 280.305 66.1115L257.066 69.5927C257.756 71.6626 259.167 73.2307 261.3 74.297C263.433 75.3006 265.879 75.8024 268.639 75.8024C271.21 75.8024 273.625 75.4888 275.883 74.8616C278.204 74.1716 280.086 73.3875 281.529 72.5094C282.532 73.1366 283.379 74.0148 284.069 75.1438C284.759 76.2729 285.104 77.4646 285.104 78.7191C285.104 81.5417 283.787 83.643 281.152 85.0229C279.145 86.0892 276.887 86.8106 274.378 87.1869C271.869 87.5632 269.517 87.7514 267.321 87.7514ZM264.687 50.7754C263.182 50.7754 261.864 51.0263 260.735 51.5281C259.669 52.0299 258.791 52.6885 258.101 53.5039C257.411 54.2566 256.878 55.1347 256.502 56.1383C256.188 57.0792 256 58.0514 255.937 59.055L272.026 56.4206C271.838 55.1661 271.148 53.9116 269.956 52.6571C268.764 51.4026 267.008 50.7754 264.687 50.7754Z"
    fill="#5B2A86"
  />
  <path
    d="M204.78 67.8051V85.8697C204.09 86.0579 202.992 86.246 201.486 86.4342C200.044 86.6224 198.601 86.7165 197.159 86.7165C195.716 86.7165 194.43 86.591 193.301 86.3401C192.235 86.152 191.325 85.7756 190.572 85.2111C189.882 84.6466 189.349 83.8625 188.973 82.8589C188.597 81.8553 188.408 80.5381 188.408 78.9073V34.5925C188.408 33.2753 188.753 32.2717 189.443 31.5817C190.196 30.829 191.2 30.2331 192.454 29.7941C194.587 29.0414 197.064 28.5082 199.887 28.1946C202.71 27.8183 205.72 27.6301 208.919 27.6301C217.575 27.6301 224.099 29.4491 228.489 33.0871C232.88 36.7251 235.075 41.649 235.075 47.8587C235.075 51.7476 234.072 55.072 232.065 57.8319C230.057 60.5918 227.674 62.7244 224.914 64.2298C227.172 67.3033 229.399 70.1886 231.594 72.8857C233.79 75.5829 235.514 78.0291 236.769 80.2245C236.142 82.4198 234.981 84.1134 233.288 85.3052C231.657 86.4342 229.807 86.9987 227.737 86.9987C226.357 86.9987 225.165 86.8419 224.161 86.5283C223.158 86.2147 222.28 85.7756 221.527 85.2111C220.774 84.6466 220.084 83.9566 219.457 83.1412C218.83 82.3258 218.234 81.4476 217.669 80.5067L209.766 67.8051H204.78ZM210.707 55.2915C213.09 55.2915 214.972 54.6957 216.352 53.5039C217.732 52.2494 218.422 50.4304 218.422 48.0469C218.422 45.6633 217.638 43.8757 216.07 42.6839C214.565 41.4295 212.15 40.8022 208.825 40.8022C207.884 40.8022 207.132 40.8336 206.567 40.8963C206.003 40.959 205.375 41.0531 204.685 41.1786V55.2915H210.707Z"
    fill="#5B2A86"
  />
</svg>
