<svg width="133" height="146" viewBox="0 0 133 146" fill="none" xmlns="http://www.w3.org/2000/svg">
<path d="M70.4737 0H8C3.58172 0 0 3.58172 0 8V122.105C0 126.524 3.58172 130.105 8 130.105H95C99.4183 130.105 103 126.524 103 122.105V32.5263L74.9428 30.8759C73.4246 30.7866 72.2134 29.5754 72.1241 28.0572L70.4737 0Z" fill="#5B2A86"/>
<path d="M70.4736 26.5263V0L103 32.5263H76.4736C73.1599 32.5263 70.4736 29.84 70.4736 26.5263Z" fill="#D14081"/>
<path d="M81.096 103.092C64.4579 108.358 34.5975 105.287 21.747 103.092C20.7324 102.919 17.1817 102.417 15.6599 103.599C11.0946 107.143 8.55829 104.105 11.0946 101.067C13.1236 98.6362 11.6018 93.64 10.5873 91.4458C8.05105 85.3693 8.05104 74.2292 8.05104 68.1528C8.05104 62.5598 10.0801 52.4554 8.5583 49.4171C6.93508 44.556 9.23464 44.691 10.5873 45.3662C13.6309 45.8726 16.1671 48.9108 23.2687 46.3789C41.53 42.328 69.0909 44.3535 80.5887 45.8726C82.7868 46.3789 87.5888 47.1891 89.2121 46.3789C94.0817 43.1382 94.2846 47.0541 93.7774 49.4171C92.7628 54.4808 92.5599 53.9745 93.7774 59.0381C99.8644 84.3566 91.2411 90.433 93.7774 98.5349C95.8064 105.016 92.9319 104.611 91.2411 103.599C90.0575 102.586 86.3714 101.067 81.096 103.092Z" fill="#5B2A86"/>
<path d="M27.3503 63.9497C29.1883 63.9497 30.8884 64.185 32.4507 64.6555C34.0436 65.0966 35.4068 65.7877 36.5402 66.7288C37.6736 67.6699 38.562 68.8609 39.2053 70.302C39.8486 71.7136 40.1703 73.4046 40.1703 75.375C40.1703 77.2571 39.8946 78.904 39.3432 80.3156C38.7918 81.7272 38.0106 82.9183 36.9997 83.8888C35.9888 84.8299 34.7635 85.5357 33.3237 86.0062C31.9146 86.4767 30.337 86.712 28.5909 86.712C27.2737 86.712 26.0483 86.5209 24.9149 86.1385V93.4613C24.6086 93.5495 24.1185 93.6378 23.4445 93.726C22.7706 93.8436 22.0813 93.9024 21.3768 93.9024C20.7029 93.9024 20.0902 93.8583 19.5388 93.7701C19.018 93.6819 18.5738 93.5054 18.2062 93.2407C17.8386 92.9761 17.5629 92.6085 17.3791 92.1379C17.1953 91.6968 17.1034 91.1086 17.1034 90.3734V69.1991C17.1034 68.4051 17.2719 67.7581 17.6089 67.2582C17.9765 66.7582 18.4666 66.3024 19.0793 65.8907C20.0289 65.3025 21.2083 64.8319 22.6174 64.479C24.0266 64.1261 25.6042 63.9497 27.3503 63.9497ZM27.4422 80.8009C30.5974 80.8009 32.175 78.9922 32.175 75.375C32.175 73.4928 31.7768 72.0959 30.9803 71.1842C30.2145 70.2726 29.0964 69.8167 27.626 69.8167C27.0439 69.8167 26.5232 69.8902 26.0637 70.0373C25.6042 70.1549 25.2059 70.302 24.869 70.4784V80.1833C25.2366 80.3597 25.6348 80.5068 26.0637 80.6244C26.4925 80.742 26.952 80.8009 27.4422 80.8009Z" fill="white"/>
<path d="M42.5578 75.3308C42.5578 73.3899 42.8642 71.7136 43.4768 70.302C44.0895 68.8609 44.9319 67.6699 46.0041 66.7288C47.1069 65.7877 48.3782 65.0966 49.8179 64.6555C51.2883 64.185 52.8659 63.9497 54.5508 63.9497C55.1634 63.9497 55.7608 64.0085 56.3428 64.1261C56.9248 64.2144 57.3996 64.332 57.7672 64.479V57.3327C58.0736 57.2445 58.5637 57.1563 59.2376 57.068C59.9116 56.9504 60.6008 56.8916 61.3054 56.8916C61.9793 56.8916 62.5767 56.9357 63.0974 57.0239C63.6488 57.1122 64.1083 57.2886 64.4759 57.5533C64.8435 57.818 65.1192 58.1856 65.303 58.6561C65.4868 59.0972 65.5787 59.6854 65.5787 60.4206V81.3302C65.5787 82.7124 64.9048 83.8153 63.5569 84.6387C62.6686 85.1975 61.5198 85.6827 60.1107 86.0944C58.7016 86.5356 57.078 86.7561 55.24 86.7561C53.2488 86.7561 51.4568 86.4914 49.8639 85.9621C48.3016 85.4327 46.969 84.6681 45.8662 83.6682C44.7941 82.6683 43.967 81.4773 43.385 80.0951C42.8336 78.6834 42.5578 77.0954 42.5578 75.3308ZM55.6076 69.8167C53.9534 69.8167 52.6821 70.2726 51.7938 71.1842C50.9054 72.0959 50.4612 73.4781 50.4612 75.3308C50.4612 77.1542 50.8748 78.5364 51.7019 79.4775C52.529 80.3891 53.7237 80.845 55.286 80.845C55.8374 80.845 56.3275 80.7715 56.7563 80.6244C57.2158 80.448 57.5681 80.2568 57.8132 80.0509V70.3461C57.2005 69.9932 56.4653 69.8167 55.6076 69.8167Z" fill="white"/>
<path d="M70.0789 64.6114C70.0789 63.1115 70.3393 61.8323 70.8601 60.7735C71.4115 59.6854 72.1467 58.8032 73.0657 58.1268C73.9847 57.421 75.0568 56.9063 76.2821 56.5828C77.5381 56.2593 78.8706 56.0976 80.2798 56.0976C82.5466 56.0976 84.2161 56.3916 85.2883 56.9798C86.3605 57.5386 86.8966 58.5091 86.8966 59.8913C86.8966 60.4795 86.7587 61.0088 86.483 61.4793C86.2379 61.9499 85.9622 62.3028 85.6559 62.5381C85.0739 62.391 84.4612 62.2734 83.8179 62.1852C83.2053 62.0675 82.4854 62.0087 81.6583 62.0087C80.341 62.0087 79.3148 62.2293 78.5796 62.6704C77.8444 63.0821 77.4768 63.8173 77.4768 64.8761V66.2877H85.0126C85.1964 66.6112 85.3649 67.0229 85.5181 67.5228C85.7019 67.9934 85.7938 68.5227 85.7938 69.1109C85.7938 70.1402 85.5487 70.8901 85.0586 71.3607C84.5991 71.8018 83.9711 72.0224 83.1746 72.0224H77.8904V86.0062C77.5841 86.0944 77.0939 86.1827 76.42 86.2709C75.7767 86.3591 75.1028 86.4032 74.3982 86.4032C73.7243 86.4032 73.1116 86.3591 72.5602 86.2709C72.0394 86.1827 71.5953 86.0062 71.2277 85.7415C70.8601 85.4768 70.569 85.1239 70.3546 84.6828C70.1708 84.2123 70.0789 83.6094 70.0789 82.8742V64.6114Z" fill="white"/>
<rect x="39" y="106" width="94" height="40" rx="20" fill="#D14081"/>
<path d="M57.352 126.024H53.68V119.424C53.68 118.816 53.856 118.336 54.208 117.984C54.576 117.632 55.064 117.456 55.672 117.456C56.008 117.456 56.336 117.48 56.656 117.528C56.976 117.576 57.208 117.616 57.352 117.648V126.024ZM55.624 126.6V123.648H62.824C62.92 123.792 63.008 123.992 63.088 124.248C63.184 124.504 63.232 124.776 63.232 125.064C63.232 125.592 63.112 125.984 62.872 126.24C62.648 126.48 62.328 126.6 61.912 126.6H55.624ZM55.672 120.432V117.456H63.64C63.752 117.6 63.84 117.8 63.904 118.056C63.984 118.312 64.024 118.592 64.024 118.896C64.024 119.408 63.904 119.792 63.664 120.048C63.44 120.304 63.128 120.432 62.728 120.432H55.672ZM53.68 124.632H57.4V131.976C57.24 132.024 57 132.064 56.68 132.096C56.36 132.144 56.032 132.168 55.696 132.168C54.96 132.168 54.44 132.04 54.136 131.784C53.832 131.512 53.68 131.056 53.68 130.416V124.632ZM77.1498 126.24C77.1498 127.488 76.8938 128.576 76.3818 129.504C75.8858 130.416 75.1818 131.12 74.2698 131.616C73.3578 132.112 72.2858 132.36 71.0538 132.36C69.8218 132.36 68.7418 132.12 67.8138 131.64C66.9018 131.144 66.1898 130.44 65.6777 129.528C65.1817 128.6 64.9338 127.504 64.9338 126.24C64.9338 124.976 65.1898 123.888 65.7018 122.976C66.2138 122.064 66.9258 121.36 67.8378 120.864C68.7658 120.368 69.8378 120.12 71.0538 120.12C72.2698 120.12 73.3338 120.376 74.2458 120.888C75.1578 121.384 75.8698 122.088 76.3818 123C76.8938 123.912 77.1498 124.992 77.1498 126.24ZM71.0298 122.952C70.2938 122.952 69.7098 123.24 69.2778 123.816C68.8458 124.392 68.6298 125.2 68.6298 126.24C68.6298 127.296 68.8378 128.112 69.2538 128.688C69.6858 129.248 70.2858 129.528 71.0538 129.528C71.8058 129.528 72.3898 129.24 72.8058 128.664C73.2378 128.088 73.4538 127.28 73.4538 126.24C73.4538 125.2 73.2378 124.392 72.8058 123.816C72.3738 123.24 71.7818 122.952 71.0298 122.952ZM82.9842 123.6V126.552H79.3602V123.144C79.3602 122.696 79.4722 122.32 79.6962 122.016C79.9202 121.696 80.2242 121.408 80.6082 121.152C81.1362 120.832 81.7682 120.584 82.5042 120.408C83.2562 120.216 84.0402 120.12 84.8562 120.12C86.5042 120.12 87.3282 120.672 87.3282 121.776C87.3282 122.048 87.2882 122.296 87.2082 122.52C87.1442 122.744 87.0562 122.936 86.9442 123.096C86.7842 123.064 86.5842 123.04 86.3442 123.024C86.1202 122.992 85.8802 122.976 85.6242 122.976C85.1442 122.976 84.6642 123.032 84.1842 123.144C83.7202 123.256 83.3202 123.408 82.9842 123.6ZM79.3602 125.664L82.9842 125.736V131.976C82.8242 132.024 82.5922 132.064 82.2882 132.096C82.0002 132.144 81.6882 132.168 81.3522 132.168C80.6642 132.168 80.1602 132.048 79.8402 131.808C79.5202 131.568 79.3602 131.128 79.3602 130.488V125.664ZM99.3878 124.056V126.768H95.7638V124.512C95.7638 123.968 95.6038 123.576 95.2838 123.336C94.9798 123.08 94.5878 122.952 94.1078 122.952C93.7558 122.952 93.4438 123.008 93.1718 123.12C92.8998 123.216 92.6758 123.32 92.4998 123.432V126.768H88.8758V123.048C88.8758 122.648 88.9638 122.32 89.1398 122.064C89.3158 121.792 89.5638 121.544 89.8838 121.32C90.3958 120.968 91.0358 120.68 91.8038 120.456C92.5878 120.232 93.4038 120.12 94.2518 120.12C95.0198 120.12 95.7398 120.24 96.4118 120.48C97.0838 120.704 97.6678 121.064 98.1638 121.56C98.2918 121.672 98.4118 121.784 98.5238 121.896C98.6518 121.992 98.7478 122.104 98.8118 122.232C98.9718 122.488 99.1078 122.776 99.2198 123.096C99.3318 123.4 99.3878 123.72 99.3878 124.056ZM106.3 124.416V126.768H102.676V124.512C102.676 123.968 102.524 123.576 102.22 123.336C101.932 123.08 101.54 122.952 101.044 122.952C100.692 122.952 100.348 123.024 100.012 123.168C99.6918 123.312 99.4198 123.488 99.1958 123.696L97.2758 121.608C97.8038 121.208 98.4038 120.864 99.0758 120.576C99.7638 120.272 100.596 120.12 101.572 120.12C102.404 120.12 103.18 120.264 103.9 120.552C104.62 120.824 105.196 121.28 105.628 121.92C106.076 122.544 106.3 123.376 106.3 124.416ZM88.8758 125.688H92.4998V131.976C92.3398 132.024 92.1078 132.064 91.8038 132.096C91.5158 132.144 91.2038 132.168 90.8678 132.168C90.1798 132.168 89.6758 132.048 89.3558 131.808C89.0358 131.568 88.8758 131.128 88.8758 130.488V125.688ZM95.7638 125.688H99.3878V131.976C99.2278 132.024 99.0038 132.064 98.7158 132.096C98.4278 132.144 98.1078 132.168 97.7558 132.168C97.0678 132.168 96.5638 132.048 96.2438 131.808C95.9238 131.568 95.7638 131.128 95.7638 130.488V125.688ZM102.676 125.688H106.3V131.976C106.14 132.024 105.908 132.064 105.604 132.096C105.316 132.144 105.004 132.168 104.668 132.168C103.98 132.168 103.476 132.048 103.156 131.808C102.836 131.568 102.676 131.128 102.676 130.488V125.688ZM118.44 128.64C118.44 129.808 117.992 130.728 117.096 131.4C116.216 132.056 114.936 132.384 113.256 132.384C111.928 132.384 110.84 132.192 109.992 131.808C109.144 131.424 108.72 130.856 108.72 130.104C108.72 129.752 108.792 129.456 108.936 129.216C109.08 128.96 109.264 128.752 109.488 128.592C109.936 128.864 110.456 129.104 111.048 129.312C111.656 129.52 112.344 129.624 113.112 129.624C114.28 129.624 114.864 129.304 114.864 128.664C114.864 128.376 114.752 128.152 114.528 127.992C114.32 127.832 113.984 127.704 113.52 127.608L112.536 127.392C111.24 127.12 110.272 126.696 109.632 126.12C109.008 125.544 108.696 124.76 108.696 123.768C108.696 122.648 109.152 121.76 110.064 121.104C110.976 120.432 112.2 120.096 113.736 120.096C114.504 120.096 115.2 120.176 115.824 120.336C116.464 120.48 116.968 120.712 117.336 121.032C117.704 121.336 117.888 121.72 117.888 122.184C117.888 122.504 117.824 122.792 117.696 123.048C117.568 123.288 117.4 123.48 117.192 123.624C117.016 123.512 116.744 123.4 116.376 123.288C116.024 123.16 115.632 123.056 115.2 122.976C114.784 122.88 114.392 122.832 114.024 122.832C113.464 122.832 113.024 122.912 112.704 123.072C112.384 123.232 112.224 123.464 112.224 123.768C112.224 123.976 112.312 124.152 112.488 124.296C112.664 124.44 112.992 124.568 113.472 124.68L114.408 124.896C115.848 125.232 116.88 125.704 117.504 126.312C118.128 126.904 118.44 127.68 118.44 128.64Z" fill="white"/>
</svg>
