<svg width="133" height="146" viewBox="0 0 133 146" fill="none" xmlns="http://www.w3.org/2000/svg">
<path d="M70.4737 0H8C3.58172 0 0 3.58172 0 8V122.105C0 126.524 3.58172 130.105 8 130.105H95C99.4183 130.105 103 126.524 103 122.105V32.5263L74.9428 30.8759C73.4246 30.7866 72.2134 29.5754 72.1241 28.0572L70.4737 0Z" fill="#5B2A86"/>
<path d="M70.4736 26.5263V0L103 32.5263H76.4736C73.1599 32.5263 70.4736 29.84 70.4736 26.5263Z" fill="#D14081"/>
<path d="M81.096 103.092C64.4579 108.358 34.5975 105.287 21.747 103.092C20.7324 102.919 17.1817 102.417 15.6599 103.599C11.0946 107.143 8.55829 104.105 11.0946 101.067C13.1236 98.6362 11.6018 93.64 10.5873 91.4458C8.05105 85.3693 8.05104 74.2292 8.05104 68.1528C8.05104 62.5598 10.0801 52.4554 8.5583 49.4171C6.93508 44.556 9.23464 44.691 10.5873 45.3662C13.6309 45.8726 16.1671 48.9108 23.2687 46.3789C41.53 42.328 69.0909 44.3535 80.5887 45.8726C82.7868 46.3789 87.5888 47.1891 89.2121 46.3789C94.0817 43.1382 94.2846 47.0541 93.7774 49.4171C92.7628 54.4808 92.5599 53.9745 93.7774 59.0381C99.8644 84.3566 91.2411 90.433 93.7774 98.5349C95.8064 105.016 92.9319 104.611 91.2411 103.599C90.0575 102.586 86.3714 101.067 81.096 103.092Z" fill="#5B2A86"/>
<path d="M27.3503 63.9497C29.1883 63.9497 30.8884 64.185 32.4507 64.6555C34.0436 65.0966 35.4068 65.7877 36.5402 66.7288C37.6736 67.6699 38.562 68.8609 39.2053 70.302C39.8486 71.7136 40.1703 73.4046 40.1703 75.375C40.1703 77.2571 39.8946 78.904 39.3432 80.3156C38.7918 81.7272 38.0106 82.9183 36.9997 83.8888C35.9888 84.8299 34.7635 85.5357 33.3237 86.0062C31.9146 86.4767 30.337 86.712 28.5909 86.712C27.2737 86.712 26.0483 86.5209 24.9149 86.1385V93.4613C24.6086 93.5495 24.1185 93.6378 23.4445 93.726C22.7706 93.8436 22.0813 93.9024 21.3768 93.9024C20.7029 93.9024 20.0902 93.8583 19.5388 93.7701C19.018 93.6819 18.5738 93.5054 18.2062 93.2407C17.8386 92.9761 17.5629 92.6085 17.3791 92.1379C17.1953 91.6968 17.1034 91.1086 17.1034 90.3734V69.1991C17.1034 68.4051 17.2719 67.7581 17.6089 67.2582C17.9765 66.7582 18.4666 66.3024 19.0793 65.8907C20.0289 65.3025 21.2083 64.8319 22.6174 64.479C24.0266 64.1261 25.6042 63.9497 27.3503 63.9497ZM27.4422 80.8009C30.5974 80.8009 32.175 78.9922 32.175 75.375C32.175 73.4928 31.7768 72.0959 30.9803 71.1842C30.2145 70.2726 29.0964 69.8167 27.626 69.8167C27.0439 69.8167 26.5232 69.8902 26.0637 70.0373C25.6042 70.1549 25.2059 70.302 24.869 70.4784V80.1833C25.2366 80.3597 25.6348 80.5068 26.0637 80.6244C26.4925 80.742 26.952 80.8009 27.4422 80.8009Z" fill="white"/>
<path d="M42.5578 75.3308C42.5578 73.3899 42.8642 71.7136 43.4768 70.302C44.0895 68.8609 44.9319 67.6699 46.0041 66.7288C47.1069 65.7877 48.3782 65.0966 49.8179 64.6555C51.2883 64.185 52.8659 63.9497 54.5508 63.9497C55.1634 63.9497 55.7608 64.0085 56.3428 64.1261C56.9248 64.2144 57.3996 64.332 57.7672 64.479V57.3327C58.0736 57.2445 58.5637 57.1563 59.2376 57.068C59.9116 56.9504 60.6008 56.8916 61.3054 56.8916C61.9793 56.8916 62.5767 56.9357 63.0974 57.0239C63.6488 57.1122 64.1083 57.2886 64.4759 57.5533C64.8435 57.818 65.1192 58.1856 65.303 58.6561C65.4868 59.0972 65.5787 59.6854 65.5787 60.4206V81.3302C65.5787 82.7124 64.9048 83.8153 63.5569 84.6387C62.6686 85.1975 61.5198 85.6827 60.1107 86.0944C58.7016 86.5356 57.078 86.7561 55.24 86.7561C53.2488 86.7561 51.4568 86.4914 49.8639 85.9621C48.3016 85.4327 46.969 84.6681 45.8662 83.6682C44.7941 82.6683 43.967 81.4773 43.385 80.0951C42.8336 78.6834 42.5578 77.0954 42.5578 75.3308ZM55.6076 69.8167C53.9534 69.8167 52.6821 70.2726 51.7938 71.1842C50.9054 72.0959 50.4612 73.4781 50.4612 75.3308C50.4612 77.1542 50.8748 78.5364 51.7019 79.4775C52.529 80.3891 53.7237 80.845 55.286 80.845C55.8374 80.845 56.3275 80.7715 56.7563 80.6244C57.2158 80.448 57.5681 80.2568 57.8132 80.0509V70.3461C57.2005 69.9932 56.4653 69.8167 55.6076 69.8167Z" fill="white"/>
<path d="M70.0789 64.6114C70.0789 63.1115 70.3393 61.8323 70.8601 60.7735C71.4115 59.6854 72.1467 58.8032 73.0657 58.1268C73.9847 57.421 75.0568 56.9063 76.2821 56.5828C77.5381 56.2593 78.8706 56.0976 80.2798 56.0976C82.5466 56.0976 84.2161 56.3916 85.2883 56.9798C86.3605 57.5386 86.8966 58.5091 86.8966 59.8913C86.8966 60.4795 86.7587 61.0088 86.483 61.4793C86.2379 61.9499 85.9622 62.3028 85.6559 62.5381C85.0739 62.391 84.4612 62.2734 83.8179 62.1852C83.2053 62.0675 82.4854 62.0087 81.6583 62.0087C80.341 62.0087 79.3148 62.2293 78.5796 62.6704C77.8444 63.0821 77.4768 63.8173 77.4768 64.8761V66.2877H85.0126C85.1964 66.6112 85.3649 67.0229 85.5181 67.5228C85.7019 67.9934 85.7938 68.5227 85.7938 69.1109C85.7938 70.1402 85.5487 70.8901 85.0586 71.3607C84.5991 71.8018 83.9711 72.0224 83.1746 72.0224H77.8904V86.0062C77.5841 86.0944 77.0939 86.1827 76.42 86.2709C75.7767 86.3591 75.1028 86.4032 74.3982 86.4032C73.7243 86.4032 73.1116 86.3591 72.5602 86.2709C72.0394 86.1827 71.5953 86.0062 71.2277 85.7415C70.8601 85.4768 70.569 85.1239 70.3546 84.6828C70.1708 84.2123 70.0789 83.6094 70.0789 82.8742V64.6114Z" fill="white"/>
<rect x="31" y="106" width="102" height="40" rx="20" fill="#E5C6F9"/>
<path d="M48.824 120.432L48.8 117.456H56.288C56.384 117.6 56.472 117.8 56.552 118.056C56.632 118.312 56.672 118.592 56.672 118.896C56.672 119.408 56.552 119.792 56.312 120.048C56.072 120.304 55.752 120.432 55.352 120.432H48.824ZM52.304 117.456L52.328 120.432H44.864C44.752 120.288 44.656 120.088 44.576 119.832C44.512 119.56 44.48 119.28 44.48 118.992C44.48 118.448 44.592 118.056 44.816 117.816C45.056 117.576 45.376 117.456 45.776 117.456H52.304ZM48.656 119.784H52.376V131.976C52.216 132.024 51.976 132.064 51.656 132.096C51.336 132.144 51.008 132.168 50.672 132.168C49.936 132.168 49.416 132.04 49.112 131.784C48.808 131.512 48.656 131.056 48.656 130.416V119.784ZM68.7513 126.24C68.7513 127.488 68.4953 128.576 67.9833 129.504C67.4873 130.416 66.7833 131.12 65.8713 131.616C64.9593 132.112 63.8873 132.36 62.6553 132.36C61.4233 132.36 60.3433 132.12 59.4153 131.64C58.5033 131.144 57.7913 130.44 57.2793 129.528C56.7833 128.6 56.5353 127.504 56.5353 126.24C56.5353 124.976 56.7913 123.888 57.3033 122.976C57.8153 122.064 58.5273 121.36 59.4393 120.864C60.3673 120.368 61.4393 120.12 62.6553 120.12C63.8713 120.12 64.9353 120.376 65.8473 120.888C66.7593 121.384 67.4713 122.088 67.9833 123C68.4953 123.912 68.7513 124.992 68.7513 126.24ZM62.6313 122.952C61.8953 122.952 61.3113 123.24 60.8793 123.816C60.4473 124.392 60.2313 125.2 60.2313 126.24C60.2313 127.296 60.4393 128.112 60.8553 128.688C61.2873 129.248 61.8873 129.528 62.6553 129.528C63.4073 129.528 63.9913 129.24 64.4073 128.664C64.8393 128.088 65.0553 127.28 65.0553 126.24C65.0553 125.2 64.8393 124.392 64.4073 123.816C63.9753 123.24 63.3833 122.952 62.6313 122.952ZM82.6498 126.24C82.6498 127.488 82.3938 128.576 81.8818 129.504C81.3858 130.416 80.6818 131.12 79.7698 131.616C78.8578 132.112 77.7858 132.36 76.5538 132.36C75.3218 132.36 74.2418 132.12 73.3138 131.64C72.4018 131.144 71.6898 130.44 71.1777 129.528C70.6817 128.6 70.4338 127.504 70.4338 126.24C70.4338 124.976 70.6898 123.888 71.2018 122.976C71.7138 122.064 72.4258 121.36 73.3378 120.864C74.2658 120.368 75.3378 120.12 76.5538 120.12C77.7698 120.12 78.8338 120.376 79.7458 120.888C80.6578 121.384 81.3698 122.088 81.8818 123C82.3938 123.912 82.6498 124.992 82.6498 126.24ZM76.5298 122.952C75.7938 122.952 75.2098 123.24 74.7778 123.816C74.3458 124.392 74.1298 125.2 74.1298 126.24C74.1298 127.296 74.3378 128.112 74.7538 128.688C75.1858 129.248 75.7858 129.528 76.5538 129.528C77.3058 129.528 77.8898 129.24 78.3058 128.664C78.7378 128.088 78.9538 127.28 78.9538 126.24C78.9538 125.2 78.7378 124.392 78.3058 123.816C77.8738 123.24 77.2818 122.952 76.5298 122.952ZM85.0042 125.664L88.6042 125.736V131.976C88.4602 132.024 88.2362 132.064 87.9322 132.096C87.6442 132.144 87.3322 132.168 86.9962 132.168C86.3082 132.168 85.8042 132.048 85.4842 131.808C85.1642 131.568 85.0042 131.128 85.0042 130.488V125.664ZM88.6042 127.608L85.0042 127.536V116.376C85.1482 116.328 85.3642 116.28 85.6522 116.232C85.9562 116.184 86.2762 116.16 86.6122 116.16C87.3162 116.16 87.8202 116.28 88.1242 116.52C88.4442 116.76 88.6042 117.208 88.6042 117.864V127.608ZM96.701 127.416L94.109 125.76L99.533 120.288C100.269 120.288 100.853 120.456 101.285 120.792C101.733 121.112 101.957 121.52 101.957 122.016C101.957 122.432 101.805 122.808 101.501 123.144C101.213 123.464 100.765 123.888 100.157 124.416L96.701 127.416ZM94.253 126.264L97.109 124.992L102.413 130.128C102.349 130.784 102.149 131.296 101.813 131.664C101.493 132.016 101.029 132.192 100.421 132.192C99.989 132.192 99.589 132.088 99.221 131.88C98.853 131.656 98.469 131.288 98.069 130.776L94.253 126.264ZM91.541 125.64L95.165 125.712V131.976C95.005 132.024 94.773 132.064 94.469 132.096C94.181 132.144 93.869 132.168 93.533 132.168C92.845 132.168 92.341 132.048 92.021 131.808C91.701 131.568 91.541 131.128 91.541 130.488V125.64ZM95.165 127.584L91.541 127.512V116.376C91.701 116.328 91.925 116.28 92.213 116.232C92.501 116.184 92.821 116.16 93.173 116.16C93.877 116.16 94.381 116.28 94.685 116.52C95.005 116.76 95.165 117.208 95.165 117.864V127.584ZM104.334 117.168C104.334 116.608 104.526 116.144 104.91 115.776C105.294 115.392 105.774 115.2 106.35 115.2C106.958 115.2 107.446 115.392 107.814 115.776C108.182 116.144 108.366 116.608 108.366 117.168C108.366 117.696 108.182 118.152 107.814 118.536C107.446 118.92 106.958 119.112 106.35 119.112C105.774 119.112 105.294 118.92 104.91 118.536C104.526 118.152 104.334 117.696 104.334 117.168ZM104.55 125.664H108.174V131.976C108.014 132.024 107.79 132.064 107.502 132.096C107.214 132.144 106.894 132.168 106.542 132.168C105.854 132.168 105.35 132.048 105.03 131.808C104.71 131.568 104.55 131.128 104.55 130.488V125.664ZM108.174 127.536H104.55V120.6C104.71 120.552 104.934 120.512 105.222 120.48C105.526 120.432 105.846 120.408 106.182 120.408C106.886 120.408 107.39 120.528 107.694 120.768C108.014 120.992 108.174 121.432 108.174 122.088V127.536ZM111.064 125.664H114.64V128.208C114.64 128.656 114.784 128.984 115.072 129.192C115.36 129.384 115.76 129.48 116.272 129.48C116.512 129.48 116.768 129.456 117.04 129.408C117.312 129.36 117.552 129.296 117.76 129.216C117.888 129.36 118 129.536 118.096 129.744C118.192 129.952 118.24 130.192 118.24 130.464C118.24 131.008 118.016 131.464 117.568 131.832C117.136 132.184 116.384 132.36 115.312 132.36C113.968 132.36 112.92 132.056 112.168 131.448C111.432 130.824 111.064 129.824 111.064 128.448V125.664ZM113.344 123.504V120.72H117.952C118.032 120.864 118.112 121.056 118.192 121.296C118.272 121.536 118.312 121.8 118.312 122.088C118.312 122.584 118.2 122.944 117.976 123.168C117.752 123.392 117.456 123.504 117.088 123.504H113.344ZM114.64 126.264H111.064V117.648C111.208 117.6 111.424 117.552 111.712 117.504C112.016 117.44 112.336 117.408 112.672 117.408C113.36 117.408 113.856 117.536 114.16 117.792C114.48 118.032 114.64 118.472 114.64 119.112V126.264Z" fill="#5B2A86"/>
</svg>
